<svg width="20" height="17" viewBox="0 0 20 17" fill="none" xmlns="http://www.w3.org/2000/svg">
<path d="M14.3503 15.3407C14.1314 15.3407 13.9215 15.2535 13.7667 15.0982C13.6119 14.943 13.5249 14.7324 13.5249 14.5128H11.874C11.874 15.1715 12.1349 15.8032 12.5993 16.269C13.0637 16.7347 13.6936 16.9964 14.3503 16.9964C15.0071 16.9964 15.637 16.7347 16.1014 16.269C16.5658 15.8032 16.8267 15.1715 16.8267 14.5128H15.1758C15.1758 14.7324 15.0888 14.943 14.934 15.0982C14.7792 15.2535 14.5693 15.3407 14.3503 15.3407Z" fill="#111111"/>
<path d="M8.54167 15.3407C8.32275 15.3407 8.1128 15.2535 7.958 15.0982C7.8032 14.943 7.71623 14.7324 7.71623 14.5128H6.05762C6.05762 14.8395 6.12176 15.1629 6.24639 15.4646C6.37102 15.7664 6.55369 16.0406 6.78397 16.2715C7.01425 16.5025 7.28764 16.6857 7.58852 16.8107C7.8894 16.9357 8.21188 17 8.53754 17C8.86321 17 9.18569 16.9357 9.48657 16.8107C9.78745 16.6857 10.0608 16.5025 10.2911 16.2715C10.5214 16.0406 10.7041 15.7664 10.8287 15.4646C10.9533 15.1629 11.0175 14.8395 11.0175 14.5128H9.36659C9.36659 14.7323 9.2797 14.9428 9.12501 15.098C8.97032 15.2533 8.7605 15.3406 8.54167 15.3407Z" fill="#111111"/>
<path d="M19.3104 1.64401C19.2654 1.63633 19.2198 1.63252 19.1742 1.63263H5.96717C5.74825 1.63263 5.53829 1.71985 5.38349 1.8751C5.22869 2.03035 5.14173 2.24092 5.14173 2.46047C5.14173 2.68003 5.22869 2.8906 5.38349 3.04585C5.53829 3.2011 5.74825 3.28832 5.96717 3.28832H18.1996L17.9814 4.60149L16.8243 11.5668H6.05642L3.24993 4.60149L1.57583 0.482961C1.4873 0.289212 1.32768 0.13717 1.13019 0.0584856C0.932694 -0.020199 0.712552 -0.0194636 0.515587 0.0605389C0.318622 0.140541 0.160009 0.293646 0.0727679 0.487983C-0.0144736 0.682319 -0.0236223 0.902913 0.0472263 1.10384L2.7201 7.68158L4.54432 12.5307C4.67897 12.9389 4.95704 13.2224 5.35841 13.2224H17.5233C17.7188 13.2225 17.9079 13.1531 18.0571 13.0264C18.2063 12.8997 18.3058 12.724 18.3379 12.5307L19.6555 4.60149L19.9888 2.59655C20.0247 2.38002 19.9735 2.15803 19.8462 1.9794C19.719 1.80077 19.5263 1.68013 19.3104 1.64401Z" fill="#111111"/>
</svg>
