<svg width="11" height="11" viewBox="0 0 11 11" fill="none" xmlns="http://www.w3.org/2000/svg">
<path opacity="0.5" d="M0.228516 1.26562C0.0761719 1.125 0 0.955078 0 0.755859C0 0.544922 0.0761719 0.363281 0.228516 0.210938C0.369141 0.0703125 0.544922 0 0.755859 0C0.966797 0 1.14258 0.0703125 1.2832 0.210938L5.25586 4.18359L9.22852 0.210938C9.36914 0.0703125 9.54492 0 9.75586 0C9.9668 0 10.1426 0.0703125 10.2832 0.210938C10.4355 0.363281 10.5117 0.544922 10.5117 0.755859C10.5117 0.955078 10.4355 1.125 10.2832 1.26562L6.31055 5.23828L10.2832 9.21094C10.4355 9.36328 10.5117 9.54492 10.5117 9.75586C10.5117 9.95508 10.4355 10.125 10.2832 10.2656C10.1426 10.418 9.9668 10.4941 9.75586 10.4941C9.54492 10.4941 9.36914 10.418 9.22852 10.2656L5.25586 6.31055L1.2832 10.2656C1.14258 10.418 0.966797 10.4941 0.755859 10.4941C0.544922 10.4941 0.369141 10.418 0.228516 10.2656C0.0761719 10.125 0 9.95508 0 9.75586C0 9.54492 0.0761719 9.36328 0.228516 9.21094L4.20117 5.23828L0.228516 1.26562Z" fill="white"/>
</svg>
