<svg xmlns="http://www.w3.org/2000/svg" width="14"
    height="14" viewBox="0 0 14 14" fill="none">
    <path fill-rule="evenodd" clip-rule="evenodd"
        d="M9.1875 3.79744C9.1875 2.51799 8.08822 1.49319 6.78558 1.61957L6.78399 1.61972C5.72148 1.71888 4.8125 2.79554 4.8125 3.90828V4.47411C4.8125 4.71573 4.61662 4.91161 4.375 4.91161C4.13338 4.91161 3.9375 4.71573 3.9375 4.47411V3.90828C3.9375 2.39627 5.13978 0.894844 6.70188 0.748577C8.52556 0.572114 10.0625 2.00883 10.0625 3.79744V4.60244C10.0625 4.84407 9.86662 5.03994 9.625 5.03994C9.38338 5.03994 9.1875 4.84407 9.1875 4.60244V3.79744Z"
        fill="white" />
    <path fill-rule="evenodd" clip-rule="evenodd"
        d="M1.96787 5.14347C2.48436 4.52942 3.36987 4.22925 4.66664 4.22925H9.33331C10.6301 4.22925 11.5156 4.52942 12.0321 5.14347C12.5444 5.75256 12.5924 6.55308 12.5098 7.29903L12.5091 7.30519L12.0721 10.8015C12.0076 11.4001 11.8565 12.0558 11.3223 12.5439C10.7908 13.0295 9.96731 13.2709 8.74998 13.2709H5.24997C4.03265 13.2709 3.2092 13.0295 2.6777 12.5439C2.1434 12.0558 1.99237 11.4001 1.92788 10.8014L1.49008 7.29904C1.40754 6.55309 1.45555 5.75256 1.96787 5.14347ZM2.35949 7.19978L2.79755 10.7043C2.8558 11.2479 2.97646 11.6317 3.26787 11.8979C3.56325 12.1678 4.1223 12.3959 5.24997 12.3959H8.74998C9.87765 12.3959 10.4367 12.1678 10.7321 11.8979C11.0235 11.6317 11.1442 11.2479 11.2025 10.7043L11.2033 10.6966L11.6405 7.19971C11.7149 6.52392 11.6372 6.03335 11.3625 5.7067C11.0914 5.3845 10.5274 5.10425 9.33331 5.10425H4.66664C3.47258 5.10425 2.9085 5.3845 2.63749 5.7067C2.36273 6.03336 2.28509 6.52396 2.35949 7.19978Z"
        fill="white" />
    <path fill-rule="evenodd" clip-rule="evenodd"
        d="M8.45569 7.00008C8.45569 6.67792 8.71686 6.41675 9.03902 6.41675H9.04426C9.36643 6.41675 9.62759 6.67792 9.62759 7.00008C9.62759 7.32225 9.36643 7.58341 9.04426 7.58341H9.03902C8.71686 7.58341 8.45569 7.32225 8.45569 7.00008Z"
        fill="white" />
    <path fill-rule="evenodd" clip-rule="evenodd"
        d="M4.37183 7.00008C4.37183 6.67792 4.63299 6.41675 4.95516 6.41675H4.9604C5.28257 6.41675 5.54373 6.67792 5.54373 7.00008C5.54373 7.32225 5.28257 7.58341 4.9604 7.58341H4.95516C4.63299 7.58341 4.37183 7.32225 4.37183 7.00008Z"
        fill="white" />
</svg>