<svg width="14" height="11" viewBox="0 0 14 11" fill="none" xmlns="http://www.w3.org/2000/svg">
<path d="M0.0683594 4.99023C0.0683594 4.99023 0.123047 4.88997 0.232422 4.68945C0.341797 4.47982 0.501302 4.22461 0.710938 3.92383C0.847656 3.73242 0.998047 3.52734 1.16211 3.30859C1.33529 3.08073 1.52669 2.85286 1.73633 2.625C2.00065 2.34245 2.29232 2.0599 2.61133 1.77734C2.93945 1.49479 3.29492 1.23503 3.67773 0.998047C4.14258 0.70638 4.65299 0.469401 5.20898 0.287109C5.76497 0.0957031 6.36198 0 7 0C7.63802 0 8.23503 0.0957031 8.79102 0.287109C9.34701 0.469401 9.85742 0.70638 10.3223 0.998047C10.7051 1.23503 11.056 1.49479 11.375 1.77734C11.7031 2.0599 11.9993 2.34245 12.2637 2.625C12.4733 2.85286 12.6602 3.08073 12.8242 3.30859C12.9974 3.52734 13.1523 3.73242 13.2891 3.92383C13.4987 4.22461 13.6582 4.47982 13.7676 4.68945C13.877 4.88997 13.9316 4.99023 13.9316 4.99023C13.9772 5.08138 14 5.17253 14 5.26367C14 5.35482 13.9772 5.43685 13.9316 5.50977C13.9316 5.50977 13.877 5.61458 13.7676 5.82422C13.6582 6.02474 13.4987 6.27995 13.2891 6.58984C13.1523 6.78125 12.9974 6.99089 12.8242 7.21875C12.6602 7.4375 12.4733 7.66081 12.2637 7.88867C11.9993 8.17122 11.7031 8.45378 11.375 8.73633C11.056 9.01888 10.7051 9.27865 10.3223 9.51562C9.85742 9.80729 9.34701 10.0443 8.79102 10.2266C8.23503 10.4089 7.63802 10.5 7 10.5C6.36198 10.5 5.76497 10.4089 5.20898 10.2266C4.65299 10.0443 4.14258 9.80729 3.67773 9.51562C3.29492 9.27865 2.93945 9.01888 2.61133 8.73633C2.29232 8.45378 2.00065 8.17122 1.73633 7.88867C1.52669 7.66081 1.33529 7.4375 1.16211 7.21875C0.998047 6.99089 0.847656 6.78125 0.710938 6.58984C0.501302 6.27995 0.341797 6.02474 0.232422 5.82422C0.123047 5.61458 0.0683594 5.50977 0.0683594 5.50977C0.0227865 5.42773 0 5.34115 0 5.25C0 5.15885 0.0227865 5.07227 0.0683594 4.99023ZM1.24414 5.25C1.29883 5.33203 1.35807 5.43229 1.42188 5.55078C1.49479 5.66016 1.58138 5.78776 1.68164 5.93359C1.80013 6.10677 1.93685 6.29362 2.0918 6.49414C2.24674 6.69466 2.41536 6.89518 2.59766 7.0957C2.83464 7.35091 3.0944 7.60156 3.37695 7.84766C3.65951 8.09375 3.96484 8.32161 4.29297 8.53125C4.6849 8.76823 5.10417 8.96419 5.55078 9.11914C6.00651 9.26497 6.48958 9.33789 7 9.33789C7.51042 9.33789 7.98893 9.26497 8.43555 9.11914C8.89128 8.96419 9.3151 8.76823 9.70703 8.53125C10.0352 8.32161 10.3405 8.09375 10.623 7.84766C10.9056 7.60156 11.1654 7.35091 11.4023 7.0957C11.5846 6.89518 11.7533 6.69466 11.9082 6.49414C12.0632 6.29362 12.1999 6.10677 12.3184 5.93359C12.4186 5.78776 12.5007 5.66016 12.5645 5.55078C12.6374 5.43229 12.7012 5.33203 12.7559 5.25C12.7012 5.16797 12.6374 5.07227 12.5645 4.96289C12.5007 4.8444 12.4186 4.7168 12.3184 4.58008C12.1999 4.4069 12.0632 4.22005 11.9082 4.01953C11.7533 3.81901 11.5846 3.61849 11.4023 3.41797C11.1654 3.15365 10.9056 2.89844 10.623 2.65234C10.3405 2.40625 10.0352 2.18294 9.70703 1.98242C9.3151 1.73633 8.89128 1.54036 8.43555 1.39453C7.98893 1.2487 7.51042 1.17578 7 1.17578C6.48958 1.17578 6.00651 1.2487 5.55078 1.39453C5.10417 1.54036 4.6849 1.73633 4.29297 1.98242C3.96484 2.18294 3.65951 2.40625 3.37695 2.65234C3.0944 2.89844 2.83464 3.15365 2.59766 3.41797C2.41536 3.61849 2.24674 3.81901 2.0918 4.01953C1.93685 4.22005 1.80013 4.4069 1.68164 4.58008C1.58138 4.7168 1.49479 4.8444 1.42188 4.96289C1.35807 5.07227 1.29883 5.16797 1.24414 5.25ZM9.33789 5.25C9.33789 5.57812 9.27409 5.88346 9.14648 6.16602C9.02799 6.44857 8.86393 6.69466 8.6543 6.9043C8.44466 7.11393 8.19401 7.28255 7.90234 7.41016C7.61979 7.52865 7.31901 7.58789 7 7.58789C6.68099 7.58789 6.37565 7.52865 6.08398 7.41016C5.80143 7.28255 5.55534 7.11393 5.3457 6.9043C5.13607 6.69466 4.96745 6.44857 4.83984 6.16602C4.72135 5.88346 4.66211 5.57812 4.66211 5.25C4.66211 4.93099 4.72135 4.63021 4.83984 4.34766C4.96745 4.0651 5.13607 3.81901 5.3457 3.60938C5.55534 3.39974 5.80143 3.23568 6.08398 3.11719C6.37565 2.98958 6.68099 2.92578 7 2.92578C7.31901 2.92578 7.61979 2.98958 7.90234 3.11719C8.19401 3.23568 8.44466 3.39974 8.6543 3.60938C8.86393 3.81901 9.02799 4.0651 9.14648 4.34766C9.27409 4.63021 9.33789 4.93099 9.33789 5.25ZM8.16211 5.25C8.16211 5.09505 8.13021 4.94922 8.06641 4.8125C8.01172 4.66667 7.92969 4.53906 7.82031 4.42969C7.72005 4.32031 7.59701 4.23828 7.45117 4.18359C7.31445 4.11979 7.16406 4.08789 7 4.08789C6.83594 4.08789 6.68099 4.11979 6.53516 4.18359C6.39844 4.23828 6.27995 4.32031 6.17969 4.42969C6.07031 4.53906 5.98372 4.66667 5.91992 4.8125C5.86523 4.94922 5.83789 5.09505 5.83789 5.25C5.83789 5.41406 5.86523 5.56901 5.91992 5.71484C5.98372 5.85156 6.07031 5.97461 6.17969 6.08398C6.27995 6.18424 6.39844 6.26628 6.53516 6.33008C6.68099 6.39388 6.83594 6.42578 7 6.42578C7.16406 6.42578 7.31445 6.39388 7.45117 6.33008C7.59701 6.26628 7.72005 6.18424 7.82031 6.08398C7.92969 5.97461 8.01172 5.85156 8.06641 5.71484C8.13021 5.56901 8.16211 5.41406 8.16211 5.25Z" fill="#111111"/>
</svg>
